<?xml version="1.0" encoding="UTF-8"?> <svg xmlns="http://www.w3.org/2000/svg" xmlns:xlink="http://www.w3.org/1999/xlink" width="103" height="29" viewBox="0 0 103 29"><defs><clipPath id="clip-coc-logo-color-horizontal"><rect width="103" height="29"></rect></clipPath></defs><g id="coc-logo-color-horizontal" clip-path="url(#clip-coc-logo-color-horizontal)"><path id="Caminho_109" data-name="Caminho 109" d="M14.8,3.106c0,.929-.006,1.858,0,2.787,0,.2-.048.259-.262.268a8.46,8.46,0,0,0-8.08,6.585,8.364,8.364,0,0,0,7.005,10,8.5,8.5,0,0,0,9.705-6.628,7.94,7.94,0,0,0,.16-1.4c.006-.175.063-.227.241-.226,1.932.005,3.863.009,5.794,0,.291,0,.239.165.235.326a13.909,13.909,0,0,1-3.318,8.827,14.583,14.583,0,0,1-9.774,5.253A14.766,14.766,0,0,1,.233,17.08,14.5,14.5,0,0,1,11.725.328a14.622,14.622,0,0,1,2.787-.31c.253,0,.3.077.3.3C14.8,1.248,14.8,2.177,14.8,3.106Z" fill="#008638"></path><path id="Caminho_110" data-name="Caminho 110" d="M29.532,25.9c0-.918.008-1.836-.006-2.753,0-.234.067-.293.3-.3a8.487,8.487,0,0,0,7.955-6.2A8.358,8.358,0,0,0,30.966,6.276a8.507,8.507,0,0,0-9.854,6.885,4.761,4.761,0,0,0-.094,1.068c.01.195-.049.275-.267.274q-2.88-.011-5.761,0c-.288,0-.273-.141-.267-.333a14.089,14.089,0,0,1,3.43-8.93,14.922,14.922,0,0,1,25.924,6.516,14.514,14.514,0,0,1-11.9,17,15.288,15.288,0,0,1-2.351.227c-.248,0-.3-.071-.3-.3C29.54,27.761,29.532,26.831,29.532,25.9Z" fill="#78d200"></path><path id="Caminho_111" data-name="Caminho 111" d="M60.387,23.157c-4.848.039-8.5-2.965-9.162-7.339A8.533,8.533,0,0,1,58.57,5.97a9.816,9.816,0,0,1,5.627.707,8.214,8.214,0,0,1,2.46,1.789c.146.151.133.23-.006.374q-1.308,1.354-2.591,2.728c-.17.184-.25.127-.391-.014a5.1,5.1,0,0,0-2.537-1.511,4.064,4.064,0,0,0-4.858,2.512,5.065,5.065,0,0,0-.037,3.863,4.328,4.328,0,0,0,6.1,2.186,6.806,6.806,0,0,0,1.575-1.119c.143-.131.22-.124.353.009.823.825,1.648,1.646,2.486,2.455.166.16.11.233-.016.368A8.37,8.37,0,0,1,60.387,23.157Z" fill="#008638"></path><path id="Caminho_112" data-name="Caminho 112" d="M96.135,5.843a8.935,8.935,0,0,1,5.452,1.54,9.667,9.667,0,0,1,1.248,1.1c.105.107.12.177,0,.3q-1.341,1.392-2.662,2.8c-.157.168-.229.087-.343-.029A5.155,5.155,0,0,0,97.3,10.027a4.052,4.052,0,0,0-4.844,2.426,5.026,5.026,0,0,0-.018,4.079A4.329,4.329,0,0,0,98.5,18.579a6.74,6.74,0,0,0,1.548-1.1c.147-.136.225-.154.378,0,.811.819,1.634,1.628,2.46,2.433.135.132.17.2.021.369a9.256,9.256,0,0,1-13.437-.026,8.382,8.382,0,0,1-1.686-8.668,8.292,8.292,0,0,1,6.545-5.581A7.708,7.708,0,0,1,96.135,5.843Z" fill="#008638"></path><path id="Caminho_113" data-name="Caminho 113" d="M82.379,7.789a9.512,9.512,0,0,0-8.556-1.561,8.6,8.6,0,0,0,1.883,16.931,10.756,10.756,0,0,0,5.165-1.018A8.478,8.478,0,0,0,82.379,7.789Zm-4.137,10.97a4.475,4.475,0,0,1-6.128-3.444,4.784,4.784,0,0,1,.859-3.726,4.148,4.148,0,0,1,4.164-1.622,4.212,4.212,0,0,1,3.413,2.679,4.282,4.282,0,0,1,.36,1.8A4.455,4.455,0,0,1,78.242,18.758Z" fill="#008638"></path></g></svg> 